<mxfile host="app.diagrams.net" modified="2023-02-22T10:49:30.254Z" agent="5.0 (Windows)" etag="ynvIyyHEMG7v5Up7hfzT" version="20.8.20" type="github">
  <diagram name="Page-1" id="TyZUWZUwhEmbMYcQDR7y">
    <mxGraphModel dx="500" dy="266" grid="1" gridSize="10" guides="1" tooltips="1" connect="1" arrows="1" fold="1" page="1" pageScale="1" pageWidth="827" pageHeight="1169" math="0" shadow="0">
      <root>
        <mxCell id="0" />
        <mxCell id="1" parent="0" />
        <mxCell id="x4vkcotw__83MeDZd9nn-2" value="" style="rounded=0;whiteSpace=wrap;html=1;imageWidth=24;" parent="1" vertex="1">
          <mxGeometry x="80" y="360" width="568" height="170" as="geometry" />
        </mxCell>
        <mxCell id="x4vkcotw__83MeDZd9nn-23" value="" style="group" parent="1" vertex="1" connectable="0">
          <mxGeometry x="259" y="401" width="28" height="58" as="geometry" />
        </mxCell>
        <mxCell id="x4vkcotw__83MeDZd9nn-24" value="" style="ellipse;whiteSpace=wrap;html=1;aspect=fixed;" parent="x4vkcotw__83MeDZd9nn-23" vertex="1">
          <mxGeometry width="28" height="28" as="geometry" />
        </mxCell>
        <mxCell id="x4vkcotw__83MeDZd9nn-25" value="" style="ellipse;whiteSpace=wrap;html=1;aspect=fixed;" parent="x4vkcotw__83MeDZd9nn-23" vertex="1">
          <mxGeometry y="30" width="28" height="28" as="geometry" />
        </mxCell>
        <mxCell id="x4vkcotw__83MeDZd9nn-1" value="" style="ellipse;whiteSpace=wrap;html=1;aspect=fixed;" parent="1" vertex="1">
          <mxGeometry x="146" y="436" width="28" height="28" as="geometry" />
        </mxCell>
        <mxCell id="x4vkcotw__83MeDZd9nn-3" value="" style="endArrow=baseDash;html=1;rounded=0;endFill=0;startArrow=baseDash;startFill=0;fillColor=#f8cecc;strokeColor=#b85450;" parent="1" edge="1">
          <mxGeometry width="50" height="50" relative="1" as="geometry">
            <mxPoint x="80" y="450" as="sourcePoint" />
            <mxPoint x="160" y="450" as="targetPoint" />
          </mxGeometry>
        </mxCell>
        <mxCell id="x4vkcotw__83MeDZd9nn-17" value="80" style="edgeLabel;html=1;align=center;verticalAlign=middle;resizable=0;points=[];" parent="x4vkcotw__83MeDZd9nn-3" vertex="1" connectable="0">
          <mxGeometry x="-0.2222" relative="1" as="geometry">
            <mxPoint as="offset" />
          </mxGeometry>
        </mxCell>
        <mxCell id="x4vkcotw__83MeDZd9nn-4" value="" style="endArrow=baseDash;html=1;rounded=0;endFill=0;startArrow=baseDash;startFill=0;fillColor=#f8cecc;strokeColor=#b85450;" parent="1" edge="1">
          <mxGeometry width="50" height="50" relative="1" as="geometry">
            <mxPoint x="160" y="360" as="sourcePoint" />
            <mxPoint x="160" y="450" as="targetPoint" />
          </mxGeometry>
        </mxCell>
        <mxCell id="x4vkcotw__83MeDZd9nn-16" value="90" style="edgeLabel;html=1;align=center;verticalAlign=middle;resizable=0;points=[];" parent="x4vkcotw__83MeDZd9nn-4" vertex="1" connectable="0">
          <mxGeometry x="-0.4622" relative="1" as="geometry">
            <mxPoint as="offset" />
          </mxGeometry>
        </mxCell>
        <mxCell id="x4vkcotw__83MeDZd9nn-8" value="" style="ellipse;whiteSpace=wrap;html=1;aspect=fixed;" parent="1" vertex="1">
          <mxGeometry x="226" y="416" width="28" height="28" as="geometry" />
        </mxCell>
        <mxCell id="x4vkcotw__83MeDZd9nn-9" value="" style="ellipse;whiteSpace=wrap;html=1;aspect=fixed;" parent="1" vertex="1">
          <mxGeometry x="226" y="446" width="28" height="28" as="geometry" />
        </mxCell>
        <mxCell id="x4vkcotw__83MeDZd9nn-12" value="" style="group" parent="1" vertex="1" connectable="0">
          <mxGeometry x="30" y="360" width="28" height="58" as="geometry" />
        </mxCell>
        <mxCell id="x4vkcotw__83MeDZd9nn-10" value="" style="ellipse;whiteSpace=wrap;html=1;aspect=fixed;" parent="x4vkcotw__83MeDZd9nn-12" vertex="1">
          <mxGeometry width="28" height="28" as="geometry" />
        </mxCell>
        <mxCell id="x4vkcotw__83MeDZd9nn-11" value="" style="ellipse;whiteSpace=wrap;html=1;aspect=fixed;" parent="x4vkcotw__83MeDZd9nn-12" vertex="1">
          <mxGeometry y="30" width="28" height="28" as="geometry" />
        </mxCell>
        <mxCell id="x4vkcotw__83MeDZd9nn-35" value="" style="endArrow=baseDash;html=1;rounded=1;fillColor=#f8cecc;strokeColor=default;startArrow=baseDash;startFill=0;endFill=0;" parent="x4vkcotw__83MeDZd9nn-12" edge="1">
          <mxGeometry width="50" height="50" relative="1" as="geometry">
            <mxPoint x="13.86" y="14" as="sourcePoint" />
            <mxPoint x="13.86" y="44" as="targetPoint" />
          </mxGeometry>
        </mxCell>
        <mxCell id="x4vkcotw__83MeDZd9nn-36" value="30" style="edgeLabel;html=1;align=center;verticalAlign=middle;resizable=0;points=[];" parent="x4vkcotw__83MeDZd9nn-35" vertex="1" connectable="0">
          <mxGeometry x="0.1251" relative="1" as="geometry">
            <mxPoint y="-3" as="offset" />
          </mxGeometry>
        </mxCell>
        <mxCell id="x4vkcotw__83MeDZd9nn-7" value="" style="endArrow=baseDash;html=1;rounded=0;fillColor=#ffe6cc;strokeColor=#d79b00;startArrow=baseDash;startFill=0;endFill=0;" parent="1" edge="1">
          <mxGeometry width="50" height="50" relative="1" as="geometry">
            <mxPoint x="240" y="360" as="sourcePoint" />
            <mxPoint x="240" y="430" as="targetPoint" />
          </mxGeometry>
        </mxCell>
        <mxCell id="x4vkcotw__83MeDZd9nn-14" value="70" style="edgeLabel;html=1;align=center;verticalAlign=middle;resizable=0;points=[];" parent="x4vkcotw__83MeDZd9nn-7" vertex="1" connectable="0">
          <mxGeometry x="-0.663" relative="1" as="geometry">
            <mxPoint as="offset" />
          </mxGeometry>
        </mxCell>
        <mxCell id="x4vkcotw__83MeDZd9nn-6" value="" style="endArrow=baseDash;html=1;rounded=0;fillColor=#ffe6cc;strokeColor=#d79b00;startArrow=baseDash;startFill=0;endFill=0;" parent="1" edge="1">
          <mxGeometry width="50" height="50" relative="1" as="geometry">
            <mxPoint x="160" y="430" as="sourcePoint" />
            <mxPoint x="240" y="430" as="targetPoint" />
          </mxGeometry>
        </mxCell>
        <mxCell id="x4vkcotw__83MeDZd9nn-13" value="80" style="edgeLabel;html=1;align=center;verticalAlign=middle;resizable=0;points=[];" parent="x4vkcotw__83MeDZd9nn-6" vertex="1" connectable="0">
          <mxGeometry x="0.1251" relative="1" as="geometry">
            <mxPoint as="offset" />
          </mxGeometry>
        </mxCell>
        <mxCell id="x4vkcotw__83MeDZd9nn-18" value="" style="endArrow=baseDash;html=1;rounded=0;fillColor=#d5e8d4;strokeColor=#82b366;startArrow=baseDash;startFill=0;endFill=0;" parent="1" edge="1">
          <mxGeometry width="50" height="50" relative="1" as="geometry">
            <mxPoint x="240" y="383" as="sourcePoint" />
            <mxPoint x="273" y="383" as="targetPoint" />
          </mxGeometry>
        </mxCell>
        <mxCell id="x4vkcotw__83MeDZd9nn-19" value="33" style="edgeLabel;html=1;align=center;verticalAlign=middle;resizable=0;points=[];" parent="x4vkcotw__83MeDZd9nn-18" vertex="1" connectable="0">
          <mxGeometry x="0.1251" relative="1" as="geometry">
            <mxPoint x="-5" as="offset" />
          </mxGeometry>
        </mxCell>
        <mxCell id="x4vkcotw__83MeDZd9nn-32" value="" style="group" parent="1" vertex="1" connectable="0">
          <mxGeometry x="295" y="400" width="28" height="58" as="geometry" />
        </mxCell>
        <mxCell id="x4vkcotw__83MeDZd9nn-33" value="" style="ellipse;whiteSpace=wrap;html=1;aspect=fixed;" parent="x4vkcotw__83MeDZd9nn-32" vertex="1">
          <mxGeometry width="28" height="28" as="geometry" />
        </mxCell>
        <mxCell id="x4vkcotw__83MeDZd9nn-34" value="" style="ellipse;whiteSpace=wrap;html=1;aspect=fixed;" parent="x4vkcotw__83MeDZd9nn-32" vertex="1">
          <mxGeometry y="30" width="28" height="28" as="geometry" />
        </mxCell>
        <mxCell id="x4vkcotw__83MeDZd9nn-28" value="" style="endArrow=baseDash;html=1;rounded=0;fillColor=#dae8fc;strokeColor=#6c8ebf;startArrow=baseDash;startFill=0;endFill=0;" parent="1" edge="1">
          <mxGeometry width="50" height="50" relative="1" as="geometry">
            <mxPoint x="309" y="360" as="sourcePoint" />
            <mxPoint x="309" y="415" as="targetPoint" />
          </mxGeometry>
        </mxCell>
        <mxCell id="x4vkcotw__83MeDZd9nn-29" value="55" style="edgeLabel;html=1;align=center;verticalAlign=middle;resizable=0;points=[];" parent="x4vkcotw__83MeDZd9nn-28" vertex="1" connectable="0">
          <mxGeometry x="-0.663" relative="1" as="geometry">
            <mxPoint as="offset" />
          </mxGeometry>
        </mxCell>
        <mxCell id="x4vkcotw__83MeDZd9nn-26" value="" style="endArrow=baseDash;html=1;rounded=0;fillColor=#d5e8d4;strokeColor=#82b366;startArrow=baseDash;startFill=0;endFill=0;" parent="1" edge="1">
          <mxGeometry width="50" height="50" relative="1" as="geometry">
            <mxPoint x="273" y="360" as="sourcePoint" />
            <mxPoint x="273" y="415" as="targetPoint" />
          </mxGeometry>
        </mxCell>
        <mxCell id="x4vkcotw__83MeDZd9nn-27" value="55" style="edgeLabel;html=1;align=center;verticalAlign=middle;resizable=0;points=[];" parent="x4vkcotw__83MeDZd9nn-26" vertex="1" connectable="0">
          <mxGeometry x="-0.663" relative="1" as="geometry">
            <mxPoint as="offset" />
          </mxGeometry>
        </mxCell>
        <mxCell id="x4vkcotw__83MeDZd9nn-30" value="" style="endArrow=baseDash;html=1;rounded=0;fillColor=#dae8fc;strokeColor=#6c8ebf;startArrow=baseDash;startFill=0;endFill=0;" parent="1" edge="1">
          <mxGeometry width="50" height="50" relative="1" as="geometry">
            <mxPoint x="273" y="393" as="sourcePoint" />
            <mxPoint x="309" y="393" as="targetPoint" />
          </mxGeometry>
        </mxCell>
        <mxCell id="x4vkcotw__83MeDZd9nn-31" value="36" style="edgeLabel;html=1;align=center;verticalAlign=middle;resizable=0;points=[];" parent="x4vkcotw__83MeDZd9nn-30" vertex="1" connectable="0">
          <mxGeometry x="0.1251" relative="1" as="geometry">
            <mxPoint as="offset" />
          </mxGeometry>
        </mxCell>
      </root>
    </mxGraphModel>
  </diagram>
</mxfile>
